<svg width="53" height="64" viewBox="0 0 53 64" fill="none" xmlns="http://www.w3.org/2000/svg">
<g filter="url(#filter0_d_0_664)">
<path fill-rule="evenodd" clip-rule="evenodd" d="M26.2235 52C28.1741 52 37.4625 40.3354 39.7528 36.6198C43.2735 30.908 45.4471 27.529 45.4471 21.2235C45.4471 10.6067 36.8404 2 26.2235 2C15.6067 2 7 10.6067 7 21.2235C7 27.5618 9.01409 30.9183 12.523 36.6198C14.9687 40.5935 24.273 52 26.2235 52Z" fill="#F52D56"/>
<path d="M26.2236 1C37.3928 1.00005 46.4473 10.0545 46.4473 21.2236C46.4472 27.8455 44.1162 31.4474 40.6045 37.1445C39.4206 39.0653 36.488 42.9542 33.625 46.3477C32.1899 48.0486 30.7504 49.6507 29.5361 50.835C28.9314 51.4247 28.3618 51.9318 27.8623 52.2979C27.613 52.4806 27.3594 52.6442 27.1123 52.7656C26.8823 52.8786 26.5695 53 26.2236 53C25.8825 53 25.5721 52.8831 25.3418 52.7725C25.0951 52.6539 24.8426 52.4936 24.5928 52.3145C24.0922 51.9556 23.5203 51.4588 22.9131 50.8789C21.6942 49.7149 20.2482 48.1365 18.8008 46.4512C15.9136 43.0894 12.935 39.1975 11.6709 37.1436C8.15671 31.4336 6.00002 27.8661 6 21.2236C6 10.0545 15.0545 1 26.2236 1Z" stroke="white" stroke-width="2"/>
</g>
<path fill-rule="evenodd" clip-rule="evenodd" d="M26.2236 30.8353C31.532 30.8353 35.8354 26.532 35.8354 21.2235C35.8354 15.9151 31.532 11.6118 26.2236 11.6118C20.9152 11.6118 16.6118 15.9151 16.6118 21.2235C16.6118 26.532 20.9152 30.8353 26.2236 30.8353Z" fill="white"/>
<defs>
<filter id="filter0_d_0_664" x="0" y="0" width="52.4473" height="64" filterUnits="userSpaceOnUse" color-interpolation-filters="sRGB">
<feFlood flood-opacity="0" result="BackgroundImageFix"/>
<feColorMatrix in="SourceAlpha" type="matrix" values="0 0 0 0 0 0 0 0 0 0 0 0 0 0 0 0 0 0 127 0" result="hardAlpha"/>
<feOffset dy="5"/>
<feGaussianBlur stdDeviation="2.5"/>
<feColorMatrix type="matrix" values="0 0 0 0 0 0 0 0 0 0 0 0 0 0 0 0 0 0 0.2 0"/>
<feBlend mode="normal" in2="BackgroundImageFix" result="effect1_dropShadow_0_664"/>
<feBlend mode="normal" in="SourceGraphic" in2="effect1_dropShadow_0_664" result="shape"/>
</filter>
</defs>
</svg>
