<svg width="22" height="16" viewBox="0 0 22 16" fill="none" xmlns="http://www.w3.org/2000/svg">
<path d="M0.4375 1.5C0.4375 1.0515 0.8015 0.6875 1.25 0.6875H20.75C21.1985 0.6875 21.5625 1.0515 21.5625 1.5C21.5625 1.9485 21.1985 2.3125 20.75 2.3125H1.25C0.8015 2.3125 0.4375 1.9485 0.4375 1.5ZM20.75 7.1875H1.25C0.8015 7.1875 0.4375 7.5515 0.4375 8C0.4375 8.4485 0.8015 8.8125 1.25 8.8125H20.75C21.1985 8.8125 21.5625 8.4485 21.5625 8C21.5625 7.5515 21.1985 7.1875 20.75 7.1875ZM20.75 13.6875H1.25C0.8015 13.6875 0.4375 14.0515 0.4375 14.5C0.4375 14.9485 0.8015 15.3125 1.25 15.3125H20.75C21.1985 15.3125 21.5625 14.9485 21.5625 14.5C21.5625 14.0515 21.1985 13.6875 20.75 13.6875Z" fill="#F7F7F7"/>
</svg>
